<svg xmlns="http://www.w3.org/2000/svg" viewBox="0 0 240 100" width="100%" height="100%">
  <!-- 
    High-Fidelity Authentic AAP Jhadu Logo
    Color: Deep Dark Blue (#0A2540)
    Optimized to match the exact organic texture, frayed strands, and silhouette of image_36b643.png
  -->
  <g fill="#0A2540">
    <!-- Left Handle/Tail Bundle (Jagged, organic left edge) -->
    <path d="M25,41 C21,41 18,39 16,40 C14,41 15,44 14,46 C15,48 13,51 16,52 C19,53 22,50 25,50 C26,47 26,44 25,41 Z" />
    <path d="M25,38 C22,37 19,36 17,38 C15,40 17,42 20,43 C23,44 24,41 25,38 Z" />
    <path d="M25,49 C21,51 18,54 19,56 C21,57 23,55 26,52 Z" />

    <!-- The Wrapping Cord / Binding (Created via background-matching negative space) -->
    <!-- When placed on a white navbar, this forms the iconic white band seen in image_36b643.png -->
    <path d="M27,35 C27,35 29,36 29,46 C29,56 27,58 27,58 L30,58 C30,58 32,54 32,46 C32,38 30,35 30,35 Z" fill="#FFFFFF" />

    <!-- Main Solid Structural Base of the Fan -->
    <path d="M31,45 C50,42 75,38 105,34 C140,29 175,23 210,25 C215,25.5 212,28 205,30 C165,37 115,46 31,51 Z" />

    <!-- Highly Detailed Top Frayed Edges & Individual Stray Strands -->
    <path d="M31,42 C60,37 90,32 120,28 C150,24 185,20 215,21 C217,21 216,23 212,24 C182,23 150,27 120,31 C90,35 60,39 31,44 Z" />
    <path d="M65,34 C100,29 140,23 180,18 C195,16 218,14 222,16 C224,17 218,19 205,21 C170,25 130,30 65,36 Z" />
    <path d="M110,27 C140,22 175,17 210,13 C214,12 215,14 211,15 C178,19 142,24 110,29 Z" />

    <!-- Central High-Contrast Texture Striations (Simulating the distinct grass stick bundles) -->
    <path d="M31,46 C70,44 110,43 150,44 C180,45 205,48 225,52 C228,53 226,55 221,54 C200,50 175,47 150,46 C110,45 70,46 31,48 Z" />
    <path d="M31,47 C65,47 100,48 135,51 C165,54 195,60 222,67 C225,68 224,70 219,69 C193,62 163,56 135,53 C100,50 65,49 31,49 Z" />
    <path d="M45,48 C80,51 115,55 150,61 C180,66 205,74 226,82 C228,83 227,85 223,84 C203,76 178,68 148,63 C115,57 80,53 45,50 Z" />

    <!-- Dense Bottom Flare & Dynamic Splintered Tips -->
    <path d="M31,50 C60,52 90,56 120,62 C150,68 180,77 208,87 C211,88 209,90 205,89 C178,79 148,70 118,64 C88,58 59,54 31,51 Z" />
    <path d="M85,58 C115,64 145,72 175,82 C190,87 210,95 213,96 C215,97 212,95 202,91 C173,81 143,73 85,61 Z" />
    
    <!-- Micro Sharp Elements on Right Silhouette to give the genuine rough-cut brush feel -->
    <polygon points="214,21 219,22 216,24" />
    <polygon points="221,28 227,30 223,32" />
    <polygon points="224,40 231,43 225,44" />
    <polygon points="221,59 228,63 222,64" />
    <polygon points="216,74 222,79 217,80" />
    <polygon points="204,88 209,93 203,93" />
  </g>
</svg>
